<?xml version="1.0" encoding="UTF-8" standalone="no"?>
<svg
   height="16px"
   viewBox="0 0 16 16"
   width="16px"
   version="1.1"
   id="svg1"
   sodipodi:docname="appointment-new-symbolic.svg"
   xml:space="preserve"
   inkscape:version="1.3.2 (091e20ef0f, 2023-11-25)"
   xmlns:inkscape="http://www.inkscape.org/namespaces/inkscape"
   xmlns:sodipodi="http://sodipodi.sourceforge.net/DTD/sodipodi-0.dtd"
   xmlns="http://www.w3.org/2000/svg"
   xmlns:svg="http://www.w3.org/2000/svg"><defs
     id="defs1" /><sodipodi:namedview
     id="namedview1"
     pagecolor="#ffffff"
     bordercolor="#000000"
     borderopacity="0.25"
     inkscape:showpageshadow="2"
     inkscape:pageopacity="0.0"
     inkscape:pagecheckerboard="0"
     inkscape:deskcolor="#d1d1d1"
     inkscape:zoom="22.627417"
     inkscape:cx="-1.8340582"
     inkscape:cy="15.136505"
     inkscape:window-width="1920"
     inkscape:window-height="1011"
     inkscape:window-x="0"
     inkscape:window-y="0"
     inkscape:window-maximized="1"
     inkscape:current-layer="svg1" /><g
     id="g8"
     transform="matrix(0.93280881,0,0,0.93280881,0.48203341,0.02011213)"
     style="fill:#bfbfbf;fill-opacity:1"><path
       id="path1-5"
       style="display:inline;fill:#bfbfbf;stroke-width:0.930598;fill-opacity:1"
       d="M 6.5136719,0 C 6.0011166,0 5.5820313,0.41713288 5.5820312,0.9296875 v 4.6542969 c 0,0.5125557 0.4190854,0.9296875 0.9316407,0.9296875 0.512555,0 0.9296875,-0.4171318 0.9296875,-0.9296875 V 0.9296875 C 7.4433594,0.41713288 7.0262269,0 6.5136719,0 Z M 3.7792969,1.6855469 C 3.7184083,1.6814573 3.6555477,1.6821826 3.59375,1.6894531 3.4737905,1.7039918 3.357372,1.7448423 3.2519531,1.8066406 0.70735218,3.2788747 -0.53904177,6.2881766 0.22070312,9.1308594 0.98408392,11.969906 3.5647566,13.955349 6.5019531,13.958984 c 0.1851184,2.29e-4 0.3688236,-0.0063 0.5507813,-0.02148 v -1.875 c -0.1789507,0.02064 -0.3592977,0.03547 -0.5429688,0.03516 C 4.4013822,12.094025 2.5648025,10.684119 2.0195312,8.6484375 1.4742601,6.6127567 2.358751,4.4721608 4.1835938,3.4179688 4.6270809,3.1598735 4.7795797,2.5919256 4.5214844,2.1484375 4.397889,1.933964 4.1969513,1.776641 3.9570312,1.7148438 3.898869,1.6984855 3.8401855,1.6896364 3.7792969,1.6855469 Z m 5.484375,0.00586 C 8.9655119,1.7104693 8.6808408,1.8728914 8.5195312,2.1523438 8.3959368,2.3631815 8.3600783,2.6175033 8.421875,2.8574219 8.487305,3.0973425 8.6390418,3.3002325 8.8535156,3.4238281 10.465691,4.3634585 11.338002,6.1493503 11.136719,7.9589844 h 1.867187 C 13.198311,5.5016446 11.980377,3.0920006 9.7929688,1.8183594 9.6266607,1.7202103 9.4425679,1.6799684 9.2636719,1.6914069 Z" /><path
       id="path1"
       style="display:inline;fill:#bfbfbf;stroke-width:1.01203;fill-opacity:1"
       d="m 10.712891,2.359375 c 10e-4,0.013072 9.76e-4,0.025983 0.002,0.039063 0.02443,0.00784 0.04798,0.017203 0.07226,0.025391 -0.02477,-0.021302 -0.04914,-0.043518 -0.07422,-0.064453 z M 6.3828125,5.3652344 c -0.1140381,0.015312 -0.1824504,0.0256 -0.2382813,0.044922 0.078895,-0.016198 0.1586476,-0.032193 0.2382813,-0.044922 z m 5.6015625,0.4082031 c 0.02425,0.00625 0.04966,0.00868 0.07422,0.013672 -0.0071,-0.00235 -0.0098,-0.00334 -0.01758,-0.00586 -0.01779,-0.00579 -0.07476,-0.012482 -0.05664,-0.00781 z m 0.939453,0.171875 c -0.0054,0.00571 -0.01017,0.011948 -0.01563,0.017578 0.0065,0.00151 0.01307,0.0024 0.01953,0.00391 -0.0016,-0.0071 -0.0023,-0.014394 -0.0039,-0.021484 z m -1.841797,3.03125 V 12.027344 H 8.0605469 v 2.033203 h 3.0214841 v 3.048828 h 2.015625 v -3.048828 h 3.021485 V 12.027344 H 13.097656 V 8.9765625 Z" /></g></svg>
